<?xml version="1.0" standalone="no"?>
<!DOCTYPE svg PUBLIC "-//W3C//DTD SVG 20010904//EN"
 "http://www.w3.org/TR/2001/REC-SVG-20010904/DTD/svg10.dtd">
<svg version="1.0" xmlns="http://www.w3.org/2000/svg"
 width="500.000000pt" height="500.000000pt" viewBox="0 0 500.000000 500.000000"
 preserveAspectRatio="xMidYMid meet">

<g transform="translate(0.000000,500.000000) scale(0.100000,-0.100000)"
fill="#000000" stroke="none">
<path d="M2261 3954 c-346 -63 -645 -245 -854 -522 -40 -53 -137 -215 -137
-228 0 -2 -9 -23 -19 -47 -46 -100 -76 -221 -90 -368 -11 -107 -5 -214 21
-351 11 -63 14 -68 38 -68 61 -1 277 -21 377 -35 132 -19 245 -43 363 -77 19
-5 47 -12 63 -15 15 -3 30 -9 33 -14 3 -5 14 -9 25 -9 10 0 27 -4 37 -9 9 -5
44 -20 77 -32 110 -41 289 -136 395 -210 176 -122 397 -358 492 -526 17 -29
34 -55 38 -58 9 -6 200 173 232 218 16 23 0 14 -66 -38 l-88 -67 -16 23 c-9
13 -17 26 -17 29 0 3 -15 28 -32 56 -18 28 -33 53 -33 57 0 9 107 68 187 103
40 17 79 36 86 42 8 7 16 10 19 7 2 -3 29 4 59 15 29 11 61 20 70 20 20 0 82
70 121 137 38 64 88 161 88 169 0 10 -187 -16 -345 -48 -176 -36 -374 -109
-478 -176 l-38 -25 -27 25 c-34 32 -56 49 -111 89 -42 30 -43 31 -25 49 28 28
231 128 324 160 19 7 44 16 55 20 11 5 31 11 45 15 14 3 41 11 60 16 139 40
337 72 516 85 l102 7 11 56 c35 176 39 274 16 421 -32 210 -90 363 -198 525
-81 121 -209 261 -228 250 -5 -4 -8 -1 -7 6 4 17 -129 116 -231 173 -211 116
-420 167 -686 165 -82 -1 -183 -8 -224 -15z m797 -557 c5 -96 -6 -195 -33
-302 -72 -284 -280 -478 -640 -596 -112 -37 -155 -45 -155 -27 0 7 23 58 51
114 63 125 166 264 305 412 85 90 98 108 67 90 -101 -58 -248 -182 -315 -265
-76 -94 -149 -206 -184 -280 -16 -35 -32 -63 -35 -63 -18 0 -34 95 -34 205 0
108 3 127 29 193 15 40 44 96 62 124 33 48 131 148 145 148 4 0 14 6 21 14 21
21 96 57 273 131 171 72 280 132 367 200 51 42 53 42 62 22 4 -12 11 -66 14
-120z"/>
<path d="M1270 2152 c0 -17 137 -240 165 -269 12 -11 41 -20 140 -44 296 -69
557 -200 739 -370 106 -99 261 -313 299 -412 5 -13 13 -17 28 -12 42 14 249
150 249 164 0 23 -115 221 -140 241 -3 3 -17 21 -30 40 -66 94 -208 234 -317
312 -134 96 -400 222 -537 253 -11 3 -39 9 -61 14 -118 29 -142 34 -165 36
-14 1 -43 7 -65 13 -22 6 -87 15 -145 22 -152 16 -160 17 -160 12z"/>
<path d="M1761 1518 c58 -57 119 -114 135 -128 144 -124 313 -245 439 -315
l70 -39 -30 39 c-82 108 -237 262 -354 350 -72 54 -283 169 -346 189 -11 3 28
-40 86 -96z"/>
</g>
</svg>
